<?xml version="1.0" standalone="no"?>
<!DOCTYPE svg PUBLIC "-//W3C//DTD SVG 20010904//EN"
 "http://www.w3.org/TR/2001/REC-SVG-20010904/DTD/svg10.dtd">
<svg version="1.0" xmlns="http://www.w3.org/2000/svg"
 width="960.000000pt" height="720.000000pt" viewBox="0 0 960.000000 720.000000"
 preserveAspectRatio="xMidYMid meet">
<metadata>
Created by potrace 1.16, written by Peter Selinger 2001-2019
</metadata>
<g transform="translate(0.000000,720.000000) scale(0.100000,-0.100000)"
fill="#000000" stroke="none">
<path d="M0 3600 l0 -3600 4800 0 4800 0 0 3600 0 3600 -4800 0 -4800 0 0
-3600z m8254 -1800 c58 -64 105 -142 111 -185 6 -33 1 -51 -24 -99 -39 -73
-107 -156 -130 -156 -26 0 -137 77 -170 118 -79 101 -79 156 2 236 57 58 146
125 163 126 7 0 28 -18 48 -40z"/>
</g>
</svg>
