<?xml version='1.0' encoding='ASCII' standalone='yes'?>
<svg xmlns="http://www.w3.org/2000/svg" version="1.0" width="960.000000pt" height="720.000000pt" viewBox="0 0 960.000000 720.000000" preserveAspectRatio="xMidYMid meet">
<metadata>
Created by potrace 1.16, written by Peter Selinger 2001-2019
</metadata>
<g transform="translate(0.000000,720.000000) scale(0.100000,-0.100000)" fill="#000000" stroke="none">
<path d="M5783 7157 c-102 -69 -234 -190 -444 -405 -131 -136 -203 -203 -215 -200 -13 2 -21 25 -35 90 -51 253 -130 418 -201 418 -36 0 -158 -71 -230 -134 -132 -115 -263 -277 -389 -481 -257 -417 -319 -512 -410 -626 -33 -41 -196 -186 -289 -256 -135 -101 -359 -204 -563 -258 -275 -73 -643 -75 -892 -3 -111 32 -114 32 -121 13 -13 -33 45 -153 101 -211 95 -97 219 -139 447 -152 103 -6 126 -10 119 -20 -16 -27 -142 -53 -281 -59 -189 -8 -349 15 -545 78 -105 34 -115 30 -96 -38 29 -112 135 -235 248 -289 103 -49 185 -65 361 -71 89 -3 165 -9 167 -13 3 -4 -24 -63 -59 -131 -34 -68 -80 -171 -100 -229 -91 -257 -220 -533 -331 -710 -208 -333 -403 -566 -635 -761 -204 -172 -538 -338 -762 -381 -110 -20 -99 -41 56 -104 307 -125 716 -137 1046 -32 105 34 256 117 327 180 11 11 28 18 37 16 13 -2 4 -22 -41 -88 -179 -266 -293 -529 -348 -805 -99 -499 -21 -961 242 -1417 61 -107 78 -106 86 5 14 200 80 510 154 727 102 300 210 477 405 666 138 133 238 209 238 179 0 -3 -24 -56 -54 -118 -79 -164 -125 -318 -146 -492 -30 -237 17 -770 68 -770 7 0 27 33 44 74 82 197 254 507 378 681 154 216 481 533 515 498 4 -3 -18 -68 -49 -145 -62 -155 -91 -283 -101 -444 -7 -115 1 -222 18 -216 5 1 22 39 37 82 47 141 107 240 208 347 163 173 365 278 655 340 82 17 137 21 282 22 298 1 383 -21 1245 -324 562 -197 822 -259 1136 -267 144 -5 203 -2 284 12 391 65 716 228 899 450 38 46 81 109 96 139 36 74 29 113 -36 206 -59 83 -279 307 -433 441 -368 317 -623 561 -727 694 -229 292 -475 827 -559 1215 -52 237 -211 575 -382 809 -57 76 -177 217 -228 266 -23 22 -46 48 -51 57 -6 11 -2 61 11 145 47 291 96 710 109 941 7 122 6 218 -4 380 -22 329 -32 400 -73 475 -25 47 -26 47 -76 47 -43 -1 -60 -7 -113 -43z"/>
<path d="M6662 6208 c-16 -16 -15 -103 1 -116 6 -5 21 -12 32 -14 19 -3 20 -10 17 -158 -3 -150 -4 -156 -28 -177 -14 -13 -33 -23 -43 -23 -29 0 -41 -22 -41 -75 0 -28 5 -56 12 -63 17 -17 112 -15 155 3 93 39 112 86 113 270 0 141 9 202 32 217 28 17 88 9 113 -17 25 -24 25 -24 25 -238 0 -172 3 -217 14 -226 9 -7 42 -11 88 -9 l73 3 3 225 c2 186 0 232 -13 267 -24 61 -52 93 -109 119 -48 22 -62 24 -241 24 -135 0 -194 -3 -203 -12z"/>
<path d="M7312 6208 c-7 -7 -12 -33 -12 -58 0 -25 5 -51 12 -58 8 -8 48 -12 115 -12 97 0 106 -2 128 -25 25 -24 25 -24 25 -238 0 -152 3 -216 12 -225 18 -18 142 -16 157 2 9 11 11 79 9 250 l-3 234 -30 44 c-20 28 -49 53 -84 71 -51 25 -62 27 -186 27 -89 0 -135 -4 -143 -12z"/>
<path d="M7887 6213 c-4 -3 -7 -29 -7 -57 0 -36 5 -56 20 -71 20 -21 20 -26 9 -112 -7 -50 -9 -97 -6 -106 11 -30 68 -50 147 -51 l75 -1 3 56 c3 51 0 58 -23 73 -19 13 -25 25 -25 54 0 21 7 48 16 60 13 19 24 22 83 22 39 0 72 -5 79 -12 8 -8 12 -55 12 -144 0 -128 -1 -134 -26 -163 -40 -47 -87 -57 -206 -42 -55 7 -104 9 -108 4 -3 -4 -12 -28 -19 -53 -12 -41 -11 -45 7 -61 32 -25 130 -41 233 -38 118 5 191 36 244 106 48 62 56 116 53 343 l-3 195 -276 3 c-151 1 -278 -1 -282 -5z"/>
<path d="M8590 6202 c0 -10 23 -50 50 -89 28 -39 50 -77 50 -85 0 -8 -12 -25 -26 -39 -51 -47 -58 -74 -62 -232 -3 -107 -1 -151 8 -162 15 -19 130 -21 148 -3 8 8 12 56 12 150 0 125 2 138 18 138 9 0 31 -22 49 -48 99 -148 156 -228 171 -239 23 -18 171 -17 178 1 3 7 -31 65 -75 129 -45 64 -81 121 -82 129 0 7 37 85 82 173 55 107 81 166 76 178 -6 15 -18 17 -89 15 l-83 -3 -45 -87 c-25 -48 -51 -90 -58 -93 -7 -2 -41 35 -82 90 l-70 95 -85 0 c-75 0 -85 -2 -85 -18z"/>
</g>
</svg>
