<?xml version='1.0' encoding='ASCII' standalone='yes'?>
<svg xmlns="http://www.w3.org/2000/svg" xmlns:xlink="http://www.w3.org/1999/xlink" version="1.1">
  <g>
    <g transform="translate(0, 0) scale(1 1) "><metadata>
Created by potrace 1.16, written by Peter Selinger 2001-2019
</metadata>
<g transform="translate(0.000000,720.000000) scale(0.100000,-0.100000)" fill="#000000" stroke="none">
<path d="M5783 7157 c-102 -69 -234 -190 -444 -405 -131 -136 -203 -203 -215 -200 -13 2 -21 25 -35 90 -51 253 -130 418 -201 418 -36 0 -158 -71 -230 -134 -132 -115 -263 -277 -389 -481 -257 -417 -319 -512 -410 -626 -33 -41 -196 -186 -289 -256 -135 -101 -359 -204 -563 -258 -275 -73 -643 -75 -892 -3 -111 32 -114 32 -121 13 -13 -33 45 -153 101 -211 95 -97 219 -139 447 -152 103 -6 126 -10 119 -20 -16 -27 -142 -53 -281 -59 -189 -8 -349 15 -545 78 -105 34 -115 30 -96 -38 29 -112 135 -235 248 -289 103 -49 185 -65 361 -71 89 -3 165 -9 167 -13 3 -4 -24 -63 -59 -131 -34 -68 -80 -171 -100 -229 -91 -257 -220 -533 -331 -710 -208 -333 -403 -566 -635 -761 -204 -172 -538 -338 -762 -381 -110 -20 -99 -41 56 -104 307 -125 716 -137 1046 -32 105 34 256 117 327 180 11 11 28 18 37 16 13 -2 4 -22 -41 -88 -179 -266 -293 -529 -348 -805 -99 -499 -21 -961 242 -1417 61 -107 78 -106 86 5 14 200 80 510 154 727 102 300 210 477 405 666 138 133 238 209 238 179 0 -3 -24 -56 -54 -118 -79 -164 -125 -318 -146 -492 -30 -237 17 -770 68 -770 7 0 27 33 44 74 82 197 254 507 378 681 154 216 481 533 515 498 4 -3 -18 -68 -49 -145 -62 -155 -91 -283 -101 -444 -7 -115 1 -222 18 -216 5 1 22 39 37 82 47 141 107 240 208 347 163 173 365 278 655 340 82 17 137 21 282 22 298 1 383 -21 1245 -324 562 -197 822 -259 1136 -267 144 -5 203 -2 284 12 391 65 716 228 899 450 38 46 81 109 96 139 36 74 29 113 -36 206 -59 83 -279 307 -433 441 -368 317 -623 561 -727 694 -229 292 -475 827 -559 1215 -52 237 -211 575 -382 809 -57 76 -177 217 -228 266 -23 22 -46 48 -51 57 -6 11 -2 61 11 145 47 291 96 710 109 941 7 122 6 218 -4 380 -22 329 -32 400 -73 475 -25 47 -26 47 -76 47 -43 -1 -60 -7 -113 -43z"/>
<path d="M6662 6208 c-16 -16 -15 -103 1 -116 6 -5 21 -12 32 -14 19 -3 20 -10 17 -158 -3 -150 -4 -156 -28 -177 -14 -13 -33 -23 -43 -23 -29 0 -41 -22 -41 -75 0 -28 5 -56 12 -63 17 -17 112 -15 155 3 93 39 112 86 113 270 0 141 9 202 32 217 28 17 88 9 113 -17 25 -24 25 -24 25 -238 0 -172 3 -217 14 -226 9 -7 42 -11 88 -9 l73 3 3 225 c2 186 0 232 -13 267 -24 61 -52 93 -109 119 -48 22 -62 24 -241 24 -135 0 -194 -3 -203 -12z"/>
<path d="M7312 6208 c-7 -7 -12 -33 -12 -58 0 -25 5 -51 12 -58 8 -8 48 -12 115 -12 97 0 106 -2 128 -25 25 -24 25 -24 25 -238 0 -152 3 -216 12 -225 18 -18 142 -16 157 2 9 11 11 79 9 250 l-3 234 -30 44 c-20 28 -49 53 -84 71 -51 25 -62 27 -186 27 -89 0 -135 -4 -143 -12z"/>
<path d="M7887 6213 c-4 -3 -7 -29 -7 -57 0 -36 5 -56 20 -71 20 -21 20 -26 9 -112 -7 -50 -9 -97 -6 -106 11 -30 68 -50 147 -51 l75 -1 3 56 c3 51 0 58 -23 73 -19 13 -25 25 -25 54 0 21 7 48 16 60 13 19 24 22 83 22 39 0 72 -5 79 -12 8 -8 12 -55 12 -144 0 -128 -1 -134 -26 -163 -40 -47 -87 -57 -206 -42 -55 7 -104 9 -108 4 -3 -4 -12 -28 -19 -53 -12 -41 -11 -45 7 -61 32 -25 130 -41 233 -38 118 5 191 36 244 106 48 62 56 116 53 343 l-3 195 -276 3 c-151 1 -278 -1 -282 -5z"/>
<path d="M8590 6202 c0 -10 23 -50 50 -89 28 -39 50 -77 50 -85 0 -8 -12 -25 -26 -39 -51 -47 -58 -74 -62 -232 -3 -107 -1 -151 8 -162 15 -19 130 -21 148 -3 8 8 12 56 12 150 0 125 2 138 18 138 9 0 31 -22 49 -48 99 -148 156 -228 171 -239 23 -18 171 -17 178 1 3 7 -31 65 -75 129 -45 64 -81 121 -82 129 0 7 37 85 82 173 55 107 81 166 76 178 -6 15 -18 17 -89 15 l-83 -3 -45 -87 c-25 -48 -51 -90 -58 -93 -7 -2 -41 35 -82 90 l-70 95 -85 0 c-75 0 -85 -2 -85 -18z"/>
</g>
</g>
  </g>
  <g>
    <g transform="translate(0, 0) scale(1 1) "><metadata>
Created by potrace 1.16, written by Peter Selinger 2001-2019
</metadata>
<g transform="translate(0.000000,720.000000) scale(0.100000,-0.100000)" fill="#000000" stroke="none">
<path d="M0 3600 l0 -3600 4800 0 4800 0 0 3600 0 3600 -1835 0 c-1009 0 -1835 -3 -1835 -7 0 -4 8 -16 19 -27 22 -25 57 -132 65 -201 4 -27 13 -152 21 -276 12 -179 13 -263 5 -395 -14 -229 -67 -681 -110 -949 -20 -125 -20 -125 83 -238 182 -201 299 -371 407 -592 82 -168 118 -267 170 -474 63 -252 147 -473 271 -723 218 -435 313 -546 1009 -1163 172 -152 310 -285 310 -297 0 -6 -14 -22 -32 -36 -83 -69 -152 -140 -169 -174 -10 -20 -22 -39 -27 -42 -15 -9 -208 -44 -314 -56 -134 -16 -438 -8 -563 14 -223 40 -360 85 -663 215 -691 296 -1221 436 -1790 472 -571 36 -1125 -102 -1537 -384 -206 -140 -263 -181 -370 -267 -276 -219 -429 -447 -550 -815 -65 -197 -145 -583 -145 -699 0 -47 -18 -56 -46 -20 -37 46 -131 234 -173 346 -46 123 -96 318 -112 443 -17 129 -14 400 5 520 58 358 214 723 432 1007 43 55 53 78 35 78 -5 0 -56 -35 -114 -78 -242 -181 -462 -247 -817 -246 -150 0 -204 5 -286 22 -175 38 -354 106 -354 136 0 8 32 21 86 34 469 119 909 457 1246 957 157 234 314 535 398 765 93 254 142 365 202 453 38 54 29 58 -147 61 -179 3 -271 20 -372 68 -108 50 -210 160 -247 264 -23 67 -12 71 100 35 284 -90 637 -95 832 -11 86 37 69 45 -101 45 -232 1 -368 40 -473 137 -67 62 -132 208 -91 208 6 0 42 -9 80 -19 130 -38 264 -54 447 -53 298 0 549 57 805 185 163 81 352 222 480 358 92 98 209 271 380 559 182 309 372 535 549 654 79 53 140 62 176 26 47 -47 94 -175 138 -371 20 -89 32 -124 42 -124 8 0 74 63 146 140 214 228 416 413 544 498 l55 37 -2933 0 -2932 0 0 -3600z m7110 2584 c44 -24 60 -41 83 -84 l27 -54 0 -221 c0 -159 -3 -224 -12 -233 -16 -16 -120 -16 -136 0 -9 9 -12 71 -12 220 0 133 -4 216 -11 232 -13 28 -55 46 -105 46 -55 0 -62 -22 -66 -210 -3 -160 -5 -167 -31 -213 -36 -61 -85 -87 -165 -87 -71 0 -84 12 -80 71 3 44 12 53 61 64 43 9 57 54 57 184 0 60 4 121 10 135 13 36 3 56 -29 56 -38 0 -51 17 -51 65 0 67 2 67 215 63 191 -4 191 -4 245 -34z m529 1 c28 -16 62 -45 78 -68 l28 -40 3 -232 c3 -268 4 -265 -78 -265 -80 0 -80 -1 -80 244 l0 213 -26 24 c-23 22 -36 24 -127 27 -56 2 -108 9 -114 14 -7 6 -13 29 -13 52 0 66 7 69 151 63 114 -4 132 -7 178 -32z m789 23 c9 -9 12 -71 12 -218 l0 -207 -30 -60 c-64 -128 -194 -174 -389 -138 -106 20 -118 31 -98 92 14 43 -9 39 187 31 99 -4 132 11 156 67 18 44 20 285 2 303 -18 18 -162 16 -177 -2 -6 -8 -14 -36 -18 -63 -5 -47 -4 -51 26 -72 25 -18 31 -29 31 -60 0 -54 -17 -64 -95 -59 -45 3 -73 10 -92 25 -26 19 -28 25 -27 95 1 41 6 84 13 95 14 27 7 46 -22 58 -17 8 -23 20 -25 53 -5 74 -11 72 277 72 187 0 260 -3 269 -12z m345 -17 c13 -16 46 -61 72 -100 27 -41 54 -71 63 -71 11 0 34 33 67 98 l50 97 78 3 c58 2 79 -1 83 -11 2 -7 -34 -85 -80 -173 -47 -87 -86 -167 -86 -178 0 -10 36 -70 81 -132 67 -94 79 -117 69 -129 -17 -21 -118 -20 -148 0 -12 9 -67 81 -123 161 -70 100 -106 144 -118 142 -14 -3 -17 -25 -21 -151 -6 -168 -5 -167 -86 -167 -75 0 -78 6 -72 163 6 146 22 200 72 246 39 36 35 47 -41 150 -18 24 -33 52 -33 62 0 17 9 19 74 19 70 0 76 -2 99 -29z"/>
<path d="M5904 3180 c-71 -13 -145 -42 -157 -61 -16 -26 17 -101 71 -157 28 -30 77 -65 122 -88 73 -38 78 -39 180 -39 89 0 111 3 146 22 145 77 118 213 -59 297 -44 21 -75 27 -154 30 -54 3 -121 1 -149 -4z"/>
</g>
</g>
  </g>
  <g>
    <g transform="translate(0, 0) scale(1 1) "><metadata>
Created by potrace 1.16, written by Peter Selinger 2001-2019
</metadata>
<g transform="translate(0.000000,720.000000) scale(0.100000,-0.100000)" fill="#000000" stroke="none">
<path d="M0 3600 l0 -3600 4800 0 4800 0 0 3600 0 3600 -4800 0 -4800 0 0 -3600z m4652 -1350 c546 -37 1084 -181 1760 -471 413 -178 604 -226 936 -236 193 -6 320 4 492 38 52 10 103 19 112 19 10 0 26 -20 41 -53 27 -59 89 -125 155 -164 24 -14 42 -32 42 -43 0 -19 -102 -107 -190 -162 -283 -180 -678 -277 -1008 -249 -340 29 -527 81 -1426 395 -445 155 -633 199 -866 199 -367 1 -689 -111 -907 -317 -123 -116 -211 -251 -258 -394 -11 -33 -23 -52 -33 -52 -13 0 -14 20 -9 158 4 102 13 185 26 237 23 96 79 252 115 323 14 28 26 56 26 62 0 67 -326 -219 -487 -428 -139 -180 -301 -457 -414 -712 -26 -58 -53 -105 -61 -105 -54 0 -93 584 -54 805 39 221 108 405 218 582 46 73 238 211 437 312 152 77 315 138 476 179 174 44 244 56 415 72 175 16 274 17 462 5z"/>
</g>
</g>
  </g>
  <g>
    <g transform="translate(0, 0) scale(1 1) "><metadata>
Created by potrace 1.16, written by Peter Selinger 2001-2019
</metadata>
<g transform="translate(0.000000,720.000000) scale(0.100000,-0.100000)" fill="#000000" stroke="none">
<path d="M0 3600 l0 -3600 4800 0 4800 0 0 3600 0 3600 -4800 0 -4800 0 0 -3600z m6207 -446 c177 -84 204 -220 59 -297 -35 -19 -57 -22 -146 -22 -102 0 -107 1 -180 39 -88 45 -161 117 -186 183 -22 56 -14 72 51 96 75 28 142 36 248 31 79 -3 110 -9 154 -30z"/>
</g>
</g>
  </g>
  <g>
    <g transform="translate(0, 0) scale(1 1) "><metadata>
Created by potrace 1.16, written by Peter Selinger 2001-2019
</metadata>
<g transform="translate(0.000000,720.000000) scale(0.100000,-0.100000)" fill="#000000" stroke="none">
<path d="M0 3600 l0 -3600 4800 0 4800 0 0 3600 0 3600 -4800 0 -4800 0 0 -3600z m8254 -1800 c58 -64 105 -142 111 -185 6 -33 1 -51 -24 -99 -39 -73 -107 -156 -130 -156 -26 0 -137 77 -170 118 -79 101 -79 156 2 236 57 58 146 125 163 126 7 0 28 -18 48 -40z"/>
</g>
</g>
  </g>
</svg>
