<?xml version='1.0' encoding='ASCII' standalone='yes'?>
<svg xmlns="http://www.w3.org/2000/svg" version="1.0" width="960.000000pt" height="720.000000pt" viewBox="0 0 960.000000 720.000000" preserveAspectRatio="xMidYMid meet">
<g><g transform="translate(0, 0) scale(1 1) "><metadata>
Created by potrace 1.16, written by Peter Selinger 2001-2019
</metadata>
<g transform="translate(0.000000,720.000000) scale(0.100000,-0.100000)" fill="#000000" stroke="none">
<path d="M0 3600 l0 -3600 4800 0 4800 0 0 3600 0 3600 -1835 0 c-1009 0 -1835 -3 -1835 -7 0 -4 8 -16 19 -27 22 -25 57 -132 65 -201 4 -27 13 -152 21 -276 12 -179 13 -263 5 -395 -14 -229 -67 -681 -110 -949 -20 -125 -20 -125 83 -238 182 -201 299 -371 407 -592 82 -168 118 -267 170 -474 63 -252 147 -473 271 -723 218 -435 313 -546 1009 -1163 172 -152 310 -285 310 -297 0 -6 -14 -22 -32 -36 -83 -69 -152 -140 -169 -174 -10 -20 -22 -39 -27 -42 -15 -9 -208 -44 -314 -56 -134 -16 -438 -8 -563 14 -223 40 -360 85 -663 215 -691 296 -1221 436 -1790 472 -571 36 -1125 -102 -1537 -384 -206 -140 -263 -181 -370 -267 -276 -219 -429 -447 -550 -815 -65 -197 -145 -583 -145 -699 0 -47 -18 -56 -46 -20 -37 46 -131 234 -173 346 -46 123 -96 318 -112 443 -17 129 -14 400 5 520 58 358 214 723 432 1007 43 55 53 78 35 78 -5 0 -56 -35 -114 -78 -242 -181 -462 -247 -817 -246 -150 0 -204 5 -286 22 -175 38 -354 106 -354 136 0 8 32 21 86 34 469 119 909 457 1246 957 157 234 314 535 398 765 93 254 142 365 202 453 38 54 29 58 -147 61 -179 3 -271 20 -372 68 -108 50 -210 160 -247 264 -23 67 -12 71 100 35 284 -90 637 -95 832 -11 86 37 69 45 -101 45 -232 1 -368 40 -473 137 -67 62 -132 208 -91 208 6 0 42 -9 80 -19 130 -38 264 -54 447 -53 298 0 549 57 805 185 163 81 352 222 480 358 92 98 209 271 380 559 182 309 372 535 549 654 79 53 140 62 176 26 47 -47 94 -175 138 -371 20 -89 32 -124 42 -124 8 0 74 63 146 140 214 228 416 413 544 498 l55 37 -2933 0 -2932 0 0 -3600z m7110 2584 c44 -24 60 -41 83 -84 l27 -54 0 -221 c0 -159 -3 -224 -12 -233 -16 -16 -120 -16 -136 0 -9 9 -12 71 -12 220 0 133 -4 216 -11 232 -13 28 -55 46 -105 46 -55 0 -62 -22 -66 -210 -3 -160 -5 -167 -31 -213 -36 -61 -85 -87 -165 -87 -71 0 -84 12 -80 71 3 44 12 53 61 64 43 9 57 54 57 184 0 60 4 121 10 135 13 36 3 56 -29 56 -38 0 -51 17 -51 65 0 67 2 67 215 63 191 -4 191 -4 245 -34z m529 1 c28 -16 62 -45 78 -68 l28 -40 3 -232 c3 -268 4 -265 -78 -265 -80 0 -80 -1 -80 244 l0 213 -26 24 c-23 22 -36 24 -127 27 -56 2 -108 9 -114 14 -7 6 -13 29 -13 52 0 66 7 69 151 63 114 -4 132 -7 178 -32z m789 23 c9 -9 12 -71 12 -218 l0 -207 -30 -60 c-64 -128 -194 -174 -389 -138 -106 20 -118 31 -98 92 14 43 -9 39 187 31 99 -4 132 11 156 67 18 44 20 285 2 303 -18 18 -162 16 -177 -2 -6 -8 -14 -36 -18 -63 -5 -47 -4 -51 26 -72 25 -18 31 -29 31 -60 0 -54 -17 -64 -95 -59 -45 3 -73 10 -92 25 -26 19 -28 25 -27 95 1 41 6 84 13 95 14 27 7 46 -22 58 -17 8 -23 20 -25 53 -5 74 -11 72 277 72 187 0 260 -3 269 -12z m345 -17 c13 -16 46 -61 72 -100 27 -41 54 -71 63 -71 11 0 34 33 67 98 l50 97 78 3 c58 2 79 -1 83 -11 2 -7 -34 -85 -80 -173 -47 -87 -86 -167 -86 -178 0 -10 36 -70 81 -132 67 -94 79 -117 69 -129 -17 -21 -118 -20 -148 0 -12 9 -67 81 -123 161 -70 100 -106 144 -118 142 -14 -3 -17 -25 -21 -151 -6 -168 -5 -167 -86 -167 -75 0 -78 6 -72 163 6 146 22 200 72 246 39 36 35 47 -41 150 -18 24 -33 52 -33 62 0 17 9 19 74 19 70 0 76 -2 99 -29z"/>
<path d="M5904 3180 c-71 -13 -145 -42 -157 -61 -16 -26 17 -101 71 -157 28 -30 77 -65 122 -88 73 -38 78 -39 180 -39 89 0 111 3 146 22 145 77 118 213 -59 297 -44 21 -75 27 -154 30 -54 3 -121 1 -149 -4z"/>
</g>
</g></g><g><g transform="translate(0, 0) scale(1 1) "><metadata>
Created by potrace 1.16, written by Peter Selinger 2001-2019
</metadata>
<g transform="translate(0.000000,720.000000) scale(0.100000,-0.100000)" fill="#000000" stroke="none">
<path d="M0 3600 l0 -3600 4800 0 4800 0 0 3600 0 3600 -4800 0 -4800 0 0 -3600z m4652 -1350 c546 -37 1084 -181 1760 -471 413 -178 604 -226 936 -236 193 -6 320 4 492 38 52 10 103 19 112 19 10 0 26 -20 41 -53 27 -59 89 -125 155 -164 24 -14 42 -32 42 -43 0 -19 -102 -107 -190 -162 -283 -180 -678 -277 -1008 -249 -340 29 -527 81 -1426 395 -445 155 -633 199 -866 199 -367 1 -689 -111 -907 -317 -123 -116 -211 -251 -258 -394 -11 -33 -23 -52 -33 -52 -13 0 -14 20 -9 158 4 102 13 185 26 237 23 96 79 252 115 323 14 28 26 56 26 62 0 67 -326 -219 -487 -428 -139 -180 -301 -457 -414 -712 -26 -58 -53 -105 -61 -105 -54 0 -93 584 -54 805 39 221 108 405 218 582 46 73 238 211 437 312 152 77 315 138 476 179 174 44 244 56 415 72 175 16 274 17 462 5z"/>
</g>
</g></g><g><g transform="translate(0, 0) scale(1 1) "><metadata>
Created by potrace 1.16, written by Peter Selinger 2001-2019
</metadata>
<g transform="translate(0.000000,720.000000) scale(0.100000,-0.100000)" fill="#000000" stroke="none">
<path d="M0 3600 l0 -3600 4800 0 4800 0 0 3600 0 3600 -4800 0 -4800 0 0 -3600z m6207 -446 c177 -84 204 -220 59 -297 -35 -19 -57 -22 -146 -22 -102 0 -107 1 -180 39 -88 45 -161 117 -186 183 -22 56 -14 72 51 96 75 28 142 36 248 31 79 -3 110 -9 154 -30z"/>
</g>
</g></g><g><g transform="translate(0, 0) scale(1 1) "><metadata>
Created by potrace 1.16, written by Peter Selinger 2001-2019
</metadata>
<g transform="translate(0.000000,720.000000) scale(0.100000,-0.100000)" fill="#000000" stroke="none">
<path d="M0 3600 l0 -3600 4800 0 4800 0 0 3600 0 3600 -4800 0 -4800 0 0 -3600z m8254 -1800 c58 -64 105 -142 111 -185 6 -33 1 -51 -24 -99 -39 -73 -107 -156 -130 -156 -26 0 -137 77 -170 118 -79 101 -79 156 2 236 57 58 146 125 163 126 7 0 28 -18 48 -40z"/>
</g>
</g></g></svg>
