<?xml version="1.0" standalone="no"?>
<!DOCTYPE svg PUBLIC "-//W3C//DTD SVG 20010904//EN"
 "http://www.w3.org/TR/2001/REC-SVG-20010904/DTD/svg10.dtd">
<svg version="1.0" xmlns="http://www.w3.org/2000/svg"
 width="960.000000pt" height="720.000000pt" viewBox="0 0 960.000000 720.000000"
 preserveAspectRatio="xMidYMid meet">
<metadata>
Created by potrace 1.16, written by Peter Selinger 2001-2019
</metadata>
<g transform="translate(0.000000,720.000000) scale(0.100000,-0.100000)"
fill="#000000" stroke="none">
<path d="M0 3600 l0 -3600 1000 0 c550 0 1000 2 1000 4 0 3 -23 42 -51 88
-121 196 -206 430 -256 698 -24 133 -24 485 1 620 71 392 215 700 500 1070 12
15 6 11 -120 -85 -193 -147 -301 -196 -538 -242 -70 -14 -141 -18 -306 -18
-225 0 -262 5 -420 52 -88 26 -260 101 -260 113 0 3 29 12 65 19 240 44 559
202 780 386 400 333 750 858 950 1425 52 148 115 285 169 370 l35 55 -187 6
c-266 10 -369 42 -494 158 -59 54 -121 159 -134 228 l-6 33 73 -26 c212 -73
459 -106 639 -86 107 12 238 47 290 77 23 13 11 14 -120 15 -146 0 -269 16
-347 44 -59 21 -143 77 -177 117 -37 44 -86 146 -86 180 l0 27 63 -20 c124
-39 250 -58 424 -65 311 -11 575 44 848 177 154 75 242 134 385 257 161 139
228 229 483 650 162 268 249 384 387 524 128 130 232 199 299 199 78 0 143
-150 211 -482 l11 -57 272 273 c261 262 346 338 439 391 l43 25 -2932 0 -2933
0 0 -3600z"/>
<path d="M5950 7180 c48 -48 65 -130 85 -410 29 -402 16 -610 -77 -1269 l-42
-294 31 -26 c53 -45 166 -174 240 -272 202 -271 321 -523 408 -863 77 -303
196 -601 352 -880 168 -302 285 -432 783 -875 146 -129 294 -263 330 -297 36
-34 83 -79 105 -100 48 -46 142 -163 175 -217 46 -77 27 -140 -85 -282 -79
-101 -207 -205 -332 -269 -55 -28 -37 -10 25 24 90 51 252 174 252 192 0 3
-23 21 -51 38 -74 45 -145 122 -165 178 l-17 48 -81 -18 c-308 -66 -662 -64
-962 7 -147 35 -248 71 -494 175 -727 310 -1229 444 -1810 481 -413 27 -837
-42 -1185 -193 -195 -84 -443 -237 -539 -332 -21 -22 -35 -33 -31 -26 15 25
-108 -68 -210 -158 -235 -206 -377 -430 -486 -766 -63 -193 -123 -485 -145
-709 l-7 -67 3792 0 3791 0 0 3600 0 3600 -1835 0 c-1828 0 -1835 0 -1815 -20z
m-3100 -5520 c-6 -11 -13 -20 -16 -20 -2 0 0 9 6 20 6 11 13 20 16 20 2 0 0
-9 -6 -20z m-47 -85 c-15 -30 -29 -53 -31 -51 -4 5 46 106 53 106 3 0 -7 -25
-22 -55z m869 -12 c-6 -2 -10 -8 -8 -12 3 -4 0 -13 -6 -21 -8 -12 -9 -12 -4 3
3 9 2 17 -3 17 -22 0 -166 -115 -269 -215 -64 -63 -118 -113 -119 -112 -4 4
190 194 237 233 59 48 160 114 174 113 6 0 6 -3 -2 -6z m1081 -40 c-29 -2 -78
-2 -110 0 -32 2 -8 3 52 3 61 0 87 -1 58 -3z m-205 -10 c-10 -2 -28 -2 -40 0
-13 2 -5 4 17 4 22 1 32 -1 23 -4z m330 0 c-10 -2 -28 -2 -40 0 -13 2 -5 4 17
4 22 1 32 -1 23 -4z m-405 -10 c-7 -2 -21 -2 -30 0 -10 3 -4 5 12 5 17 0 24
-2 18 -5z m480 0 c-7 -2 -21 -2 -30 0 -10 3 -4 5 12 5 17 0 24 -2 18 -5z
m-540 -10 c-7 -2 -19 -2 -25 0 -7 3 -2 5 12 5 14 0 19 -2 13 -5z m584 1 c-3
-3 -12 -4 -19 -1 -8 3 -5 6 6 6 11 1 17 -2 13 -5z m-2246 -31 c-12 -20 -14
-14 -5 12 4 9 9 14 11 11 3 -2 0 -13 -6 -23z m1612 20 c-7 -2 -19 -2 -25 0 -7
3 -2 5 12 5 14 0 19 -2 13 -5z m684 1 c-3 -3 -12 -4 -19 -1 -8 3 -5 6 6 6 11
1 17 -2 13 -5z m-837 -44 c-121 -41 -135 -45 -109 -30 24 14 192 70 209 69 8
0 -37 -17 -100 -39z m877 34 c-3 -3 -12 -4 -19 -1 -8 3 -5 6 6 6 11 1 17 -2
13 -5z m40 -10 c-3 -3 -12 -4 -19 -1 -8 3 -5 6 6 6 11 1 17 -2 13 -5z m40 -10
c-3 -3 -12 -4 -19 -1 -8 3 -5 6 6 6 11 1 17 -2 13 -5z m-2436 -41 c-12 -20
-14 -14 -5 12 4 9 9 14 11 11 3 -2 0 -13 -6 -23z m2506 21 c-3 -3 -12 -4 -19
-1 -8 3 -5 6 6 6 11 1 17 -2 13 -5z m-1636 -31 c-12 -20 -14 -14 -5 12 4 9 9
14 11 11 3 -2 0 -13 -6 -23z m1765 -7 c38 -14 64 -25 58 -25 -5 -1 -41 10 -80
23 -38 14 -64 25 -58 25 5 1 41 -10 80 -23z m-1787 -55 c-6 -18 -13 -30 -15
-28 -2 2 1 18 7 36 6 18 13 30 15 28 2 -2 -1 -18 -7 -36z m-878 -12 c-5 -13
-10 -19 -10 -12 -1 15 10 45 15 40 3 -2 0 -15 -5 -28z m1299 26 c0 -2 -10 -9
-22 -15 -22 -11 -22 -10 -4 4 21 17 26 19 26 11z m1545 -21 c24 -11 25 -13 5
-8 -14 4 -38 13 -55 20 -24 11 -25 13 -5 8 14 -4 39 -13 55 -20z m-1595 -8 c0
-2 -12 -11 -27 -20 l-28 -17 24 20 c23 21 31 25 31 17z m1765 -52 c24 -11 25
-13 5 -8 -14 4 -38 13 -55 20 -24 11 -25 13 -5 8 14 -4 39 -13 55 -20z m-1893
-50 c-39 -36 -93 -88 -118 -117 -53 -58 -41 -37 19 33 36 42 155 150 166 150
3 0 -27 -29 -67 -66z m-1145 24 c-3 -8 -6 -5 -6 6 -1 11 2 17 5 13 3 -3 4 -12
1 -19z m3178 -24 c24 -11 25 -13 5 -8 -14 4 -38 13 -55 20 -24 11 -25 13 -5 8
14 -4 39 -13 55 -20z m-2327 -42 c-6 -29 -13 -50 -16 -47 -2 2 1 27 8 55 7 28
14 49 16 47 3 -2 -1 -27 -8 -55z m-861 26 c-3 -8 -6 -5 -6 6 -1 11 2 17 5 13
3 -3 4 -12 1 -19z m593 -1 c0 -2 -15 -16 -32 -33 l-33 -29 29 33 c28 30 36 37
36 29z m-603 -49 c-3 -7 -5 -2 -5 12 0 14 2 19 5 13 2 -7 2 -19 0 -25z m3371
7 c29 -9 52 -19 49 -21 -5 -5 -127 36 -127 43 0 3 6 3 13 1 6 -3 36 -13 65
-23z m-3381 -62 c-3 -10 -5 -4 -5 12 0 17 2 24 5 18 2 -7 2 -21 0 -30z m553
34 c0 -2 -10 -12 -22 -23 l-23 -19 19 23 c18 21 26 27 26 19z m307 -54 c-3
-10 -5 -4 -5 12 0 17 2 24 5 18 2 -7 2 -21 0 -30z m2729 13 c38 -14 64 -25 58
-25 -5 -1 -41 10 -80 23 -38 14 -64 25 -58 25 5 1 41 -10 80 -23z m1624 -1 c0
-11 -247 -106 -273 -104 -7 0 35 17 93 38 58 20 119 45 135 54 31 17 45 21 45
12z m-4720 -35 c-12 -16 -24 -30 -26 -30 -3 0 4 14 16 30 12 17 24 30 26 30 3
0 -4 -13 -16 -30z m-503 -32 c-2 -13 -4 -5 -4 17 -1 22 1 32 4 23 2 -10 2 -28
0 -40z m3733 27 c19 -7 28 -13 20 -13 -8 0 -31 6 -50 13 -19 7 -28 13 -20 13
8 0 31 -6 50 -13z m-2873 -72 c-2 -16 -4 -3 -4 27 0 30 2 43 4 28 2 -16 2 -40
0 -55z m147 42 c-9 -14 -18 -25 -21 -25 -5 0 5 18 20 38 17 22 18 13 1 -13z
m2811 5 c13 -5 14 -9 5 -9 -8 0 -24 4 -35 9 -13 5 -14 9 -5 9 8 0 24 -4 35 -9z
m-3391 -80 c-26 -38 -49 -70 -51 -70 -5 0 2 12 49 83 21 31 41 57 43 57 3 0
-16 -31 -41 -70z m3443 64 c-3 -3 -12 -4 -19 -1 -8 3 -5 6 6 6 11 1 17 -2 13
-5z m40 -10 c-3 -3 -12 -4 -19 -1 -8 3 -5 6 6 6 11 1 17 -2 13 -5z m-3920
-261 c-1 -49 -3 -9 -3 87 0 96 2 136 3 88 2 -49 2 -127 0 -175z m3960 251 c-3
-3 -12 -4 -19 -1 -8 3 -5 6 6 6 11 1 17 -2 13 -5z m-3005 -83 c-20 -44 -39
-78 -41 -76 -4 5 66 155 73 155 2 0 -12 -36 -32 -79z m3078 69 c20 -6 21 -8 5
-8 -11 0 -31 4 -45 8 -20 6 -21 8 -5 8 11 0 31 -4 45 -8z m895 0 c-11 -5 -27
-9 -35 -9 -9 0 -8 4 5 9 11 5 27 9 35 9 9 0 8 -4 -5 -9z m-832 -17 c-7 -2 -19
-2 -25 0 -7 3 -2 5 12 5 14 0 19 -2 13 -5z m757 -3 c-14 -4 -36 -8 -50 -8 -22
0 -22 1 5 8 17 4 39 8 50 8 16 0 15 -2 -5 -8z m-697 -7 c-7 -2 -21 -2 -30 0
-10 3 -4 5 12 5 17 0 24 -2 18 -5z m60 -10 c-7 -2 -21 -2 -30 0 -10 3 -4 5 12
5 17 0 24 -2 18 -5z m550 0 c-7 -2 -19 -2 -25 0 -7 3 -2 5 12 5 14 0 19 -2 13
-5z m-465 -10 c-10 -2 -28 -2 -40 0 -13 2 -5 4 17 4 22 1 32 -1 23 -4z m410 0
c-10 -2 -26 -2 -35 0 -10 3 -2 5 17 5 19 0 27 -2 18 -5z m-135 -10 c-46 -2
-120 -2 -165 0 -46 1 -9 3 82 3 91 0 128 -2 83 -3z m-3716 -100 c-2 -16 -4 -3
-4 27 0 30 2 43 4 28 2 -16 2 -40 0 -55z m-487 27 c-6 -11 -13 -20 -16 -20 -2
0 0 9 6 20 6 11 13 20 16 20 2 0 0 -9 -6 -20z m-56 -97 c-40 -73 -67 -110 -39
-53 27 53 66 120 71 120 3 0 -12 -30 -32 -67z m575 -21 c-14 -58 -30 -60 -28
-4 1 32 2 34 8 12 7 -23 8 -22 15 14 4 21 9 36 12 34 2 -3 -1 -28 -7 -56z
m-882 -169 c-2 -16 -4 -3 -4 27 0 30 2 43 4 28 2 -16 2 -40 0 -55z m236 62
c-3 -9 -8 -14 -10 -11 -3 3 -2 9 2 15 9 16 15 13 8 -4z m-35 -70 c-12 -24 -23
-43 -26 -41 -4 5 36 86 43 86 3 0 -5 -20 -17 -45z m-191 -82 c-3 -10 -5 -2 -5
17 0 19 2 27 5 18 2 -10 2 -26 0 -35z m10 -60 c-3 -10 -5 -4 -5 12 0 17 2 24
5 18 2 -7 2 -21 0 -30z m109 -10 c-8 -15 -15 -25 -16 -21 0 12 23 58 27 54 3
-2 -2 -17 -11 -33z m-99 -45 c-3 -7 -5 -2 -5 12 0 14 2 19 5 13 2 -7 2 -19 0
-25z m10 -50 c-3 -7 -5 -2 -5 12 0 14 2 19 5 13 2 -7 2 -19 0 -25z m44 -5
c-12 -20 -14 -14 -5 12 4 9 9 14 11 11 3 -2 0 -13 -6 -23z m-13 -35 c-5 -15
-23 -11 -26 6 -2 11 2 14 13 10 9 -4 14 -11 13 -16z"/>
</g>
</svg>
