<?xml version="1.0" encoding="UTF-8" standalone="no"?>
<svg
   height="720"
   version="1.1"
   width="960"
   id="svg6"
   sodipodi:docname="output.svg"
   inkscape:version="1.3.2 (091e20e, 2023-11-25, custom)"
   xmlns:inkscape="http://www.inkscape.org/namespaces/inkscape"
   xmlns:sodipodi="http://sodipodi.sourceforge.net/DTD/sodipodi-0.dtd"
   xmlns="http://www.w3.org/2000/svg"
   xmlns:svg="http://www.w3.org/2000/svg">
  <sodipodi:namedview
     id="namedview6"
     pagecolor="#ffffff"
     bordercolor="#000000"
     borderopacity="0.25"
     inkscape:showpageshadow="2"
     inkscape:pageopacity="0.0"
     inkscape:pagecheckerboard="0"
     inkscape:deskcolor="#d1d1d1"
     inkscape:zoom="0.88977603"
     inkscape:cx="264.11141"
     inkscape:cy="113.51171"
     inkscape:window-width="3840"
     inkscape:window-height="2066"
     inkscape:window-x="-11"
     inkscape:window-y="-11"
     inkscape:window-maximized="1"
     inkscape:current-layer="svg6" />
  <defs
     id="defs1" />
  <polygon
     fill="#000000"
     points="959,0 959,719 0,719 0,0 "
     stroke="none"
     id="polygon1"
     transform="translate(-202.2981,-503.49749)" />
  <polygon
     fill="#130ffe"
     points="817,533 817,535 796,558 794,559 200,717 199,716 195,710 58,491 58,490 174,224 201,189 479,19 481,18 486,16 587,0 591,0 592,1 595,5 599,13 "
     stroke="none"
     id="polygon2"
     transform="translate(-966.53536,-595.65551)" />
  <polygon
     fill="#fefefe"
     points="344,578 575,406 584,403 589,402 596,401 607,401 614,402 617,403 622,405 628,409 632,413 634,416 635,420 635,424 633,428 629,432 269,692 "
     stroke="none"
     id="polygon3"
     transform="translate(-993.50844,112.38783)" />
  <polygon
     fill="rgb(254,15,251)"
     points="798,562 798,556 800,552 810,542 820,534 828,544 831,548 834,553 835,555 836,559 836,561 834,567 831,572 829,575 821,585 809,577 803,571 800,567 799,565"
     stroke="none"
     id="polygon4" />
  <polygon
     fill="#c89148"
     points="56,490 174,223 200,188 479,18 483,16 486,15 584,1 587,1 594,2 595,3 597,7 818,534 820,585 813,592 808,596 796,604 778,613 773,615 765,618 759,620 743,624 731,626 269,693 "
     stroke="none"
     id="polygon5"
     transform="translate(-998.00395,-6.74327)" />
  <polygon
     fill="#8b3e16"
     points="820,584 820,586 817,589 811,594 806,598 800,602 795,605 777,614 772,616 760,620 753,622 749,623 734,626 201,719 200,719 196,713 55,490 55,489 173,222 200,187 480,17 485,15 586,0 592,0 594,1 595,2 597,5 819,533 "
     stroke="none"
     id="polygon6"
     transform="translate(-530.47057,-173.07726)" />
</svg>
